<mxfile host="app.diagrams.net" agent="Mozilla/5.0 (Windows NT 10.0; Win64; x64) AppleWebKit/537.36 (KHTML, like Gecko) Chrome/138.0.0.0 Safari/537.36" version="27.1.6" pages="3">
  <diagram id="7AZIaKFDA84dNrpr3-fF" name="Page-1">
    <mxGraphModel dx="1188" dy="719" grid="1" gridSize="10" guides="1" tooltips="1" connect="1" arrows="1" fold="1" page="1" pageScale="1" pageWidth="800" pageHeight="600" math="0" shadow="0">
      <root>
        <mxCell id="0" />
        <mxCell id="1" parent="0" />
        <mxCell id="IejAQgSXKc2Y49kBOPVx-13" style="edgeStyle=orthogonalEdgeStyle;rounded=0;orthogonalLoop=1;jettySize=auto;html=1;entryX=0.5;entryY=0;entryDx=0;entryDy=0;" edge="1" parent="1" source="IejAQgSXKc2Y49kBOPVx-10" target="IejAQgSXKc2Y49kBOPVx-11">
          <mxGeometry relative="1" as="geometry" />
        </mxCell>
        <mxCell id="IejAQgSXKc2Y49kBOPVx-10" value="New&amp;nbsp;&lt;span style=&quot;background-color: transparent; color: light-dark(rgb(0, 0, 0), rgb(255, 255, 255));&quot;&gt;SoM Configuration&lt;/span&gt;" style="rounded=1;whiteSpace=wrap;html=1;" vertex="1" parent="1">
          <mxGeometry x="340" y="30" width="120" height="60" as="geometry" />
        </mxCell>
        <mxCell id="IejAQgSXKc2Y49kBOPVx-15" style="edgeStyle=orthogonalEdgeStyle;rounded=0;orthogonalLoop=1;jettySize=auto;html=1;entryX=0.5;entryY=0;entryDx=0;entryDy=0;" edge="1" parent="1" source="IejAQgSXKc2Y49kBOPVx-11" target="IejAQgSXKc2Y49kBOPVx-14">
          <mxGeometry relative="1" as="geometry" />
        </mxCell>
        <mxCell id="IejAQgSXKc2Y49kBOPVx-11" value="Execute &lt;span style=&quot;color: rgb(222, 227, 229); font-family: monospace; text-align: left; white-space-collapse: preserve; background-color: rgb(33, 39, 40);&quot;&gt;CC1: Ping charger&lt;/span&gt;&amp;nbsp;to ensure the fixture is online" style="rounded=1;whiteSpace=wrap;html=1;" vertex="1" parent="1">
          <mxGeometry x="310" y="120" width="180" height="60" as="geometry" />
        </mxCell>
        <mxCell id="IejAQgSXKc2Y49kBOPVx-19" style="edgeStyle=orthogonalEdgeStyle;rounded=0;orthogonalLoop=1;jettySize=auto;html=1;entryX=0.5;entryY=0;entryDx=0;entryDy=0;" edge="1" parent="1" source="IejAQgSXKc2Y49kBOPVx-14" target="IejAQgSXKc2Y49kBOPVx-17">
          <mxGeometry relative="1" as="geometry" />
        </mxCell>
        <mxCell id="IejAQgSXKc2Y49kBOPVx-14" value="Run &lt;span style=&quot;color: rgb(222, 227, 229); font-family: monospace; text-align: left; white-space-collapse: preserve; background-color: rgb(33, 39, 40);&quot;&gt;SOM6: Set Hostname&lt;/span&gt;&amp;nbsp;and wait for the charger information to be updated on hyperlog" style="rounded=1;whiteSpace=wrap;html=1;" vertex="1" parent="1">
          <mxGeometry x="310" y="210" width="180" height="60" as="geometry" />
        </mxCell>
        <mxCell id="IejAQgSXKc2Y49kBOPVx-21" style="edgeStyle=orthogonalEdgeStyle;rounded=0;orthogonalLoop=1;jettySize=auto;html=1;entryX=0.5;entryY=0;entryDx=0;entryDy=0;" edge="1" parent="1" source="IejAQgSXKc2Y49kBOPVx-17" target="IejAQgSXKc2Y49kBOPVx-20">
          <mxGeometry relative="1" as="geometry" />
        </mxCell>
        <mxCell id="IejAQgSXKc2Y49kBOPVx-17" value="Update hymaint to the most recent version using&amp;nbsp;&lt;span style=&quot;color: rgb(222, 227, 229); font-family: monospace; text-align: left; white-space-collapse: preserve; background-color: rgb(33, 39, 40);&quot;&gt;HYM3: Install Hymaint&lt;/span&gt;" style="rounded=1;whiteSpace=wrap;html=1;" vertex="1" parent="1">
          <mxGeometry x="310" y="300" width="180" height="60" as="geometry" />
        </mxCell>
        <mxCell id="IejAQgSXKc2Y49kBOPVx-20" value="Execute&amp;nbsp;&lt;span style=&quot;color: rgb(222, 227, 229); font-family: monospace; text-align: left; white-space-collapse: preserve; background-color: rgb(33, 39, 40);&quot;&gt; SOM2: Upload Config To Charger &lt;/span&gt;&amp;nbsp;and identify the most recent &lt;b&gt;valid &lt;/b&gt;configuration" style="rounded=1;whiteSpace=wrap;html=1;" vertex="1" parent="1">
          <mxGeometry x="310" y="390" width="180" height="60" as="geometry" />
        </mxCell>
      </root>
    </mxGraphModel>
  </diagram>
  <diagram id="SWconfig" name="SWconfig">
    <mxGraphModel dx="1426" dy="751" grid="1" gridSize="10" guides="1" tooltips="1" connect="1" arrows="1" fold="1" page="1" pageScale="1" pageWidth="800" pageHeight="600" math="0" shadow="0">
      <root>
        <object label="" id="0">
          <mxCell />
        </object>
        <mxCell id="1" parent="0" />
      </root>
    </mxGraphModel>
  </diagram>
  <diagram id="Onsitecheck" name="Onsitecheck">
    <mxGraphModel dx="1426" dy="743" grid="1" gridSize="10" guides="1" tooltips="1" connect="1" arrows="1" fold="1" page="1" pageScale="1" pageWidth="800" pageHeight="600" math="0" shadow="0">
      <root>
        <object label="" id="0">
          <mxCell />
        </object>
        <mxCell id="1" parent="0" />
        <mxCell id="Ayj4J7Idqe9e15TCJWjC-1" value="Onsitecheck" style="text;html=1;align=center;verticalAlign=middle;whiteSpace=wrap;rounded=0;" vertex="1" parent="1">
          <mxGeometry x="370" y="285" width="60" height="30" as="geometry" />
        </mxCell>
      </root>
    </mxGraphModel>
  </diagram>
</mxfile>
